<svg width="670" height="1004" viewBox="0 0 670 1004" fill="none" xmlns="http://www.w3.org/2000/svg">
<path d="M335 0C246.363 0.145768 161.398 35.4344 98.7224 98.1338C36.0465 160.833 0.771041 245.83 0.625327 334.5V936.6C0.60163 941.916 1.86702 947.158 4.31301 951.877C6.75899 956.596 10.3126 960.651 14.6691 963.695C18.9504 966.815 23.9146 968.868 29.1489 969.683C34.3832 970.497 39.7362 970.05 44.7628 968.378L117.322 943.959L138.053 985.103C140.183 989.293 143.153 993 146.777 995.992C150.401 998.985 154.602 1001.2 159.119 1002.5C163.708 1003.68 168.495 1003.87 173.164 1003.06C177.832 1002.26 182.277 1000.47 186.203 997.814L263.778 946.301L311.26 993.799C317.573 1000.07 326.106 1003.58 335 1003.58C343.894 1003.58 352.428 1000.07 358.741 993.799L406.222 946.301L483.797 997.814C489.208 1001.53 495.623 1003.52 502.188 1003.5C505.114 1003.5 508.031 1003.16 510.882 1002.5C515.398 1001.2 519.599 998.985 523.224 995.992C526.848 993 529.817 989.293 531.947 985.103L552.678 943.959L625.238 968.378C630.264 970.05 635.617 970.497 640.852 969.683C646.086 968.868 651.05 966.815 655.332 963.695C659.688 960.651 663.242 956.596 665.688 951.877C668.134 947.158 669.399 941.916 669.375 936.6V334.5C669.23 245.83 633.954 160.833 571.278 98.1338C508.602 35.4344 423.637 0.145768 335 0ZM253.413 420.132C248.6 424.607 243.059 428.227 237.028 430.836C231.071 433.631 224.547 435.005 217.969 434.85C204.715 434.625 192.043 429.363 182.525 420.132C177.864 415.479 174.166 409.952 171.641 403.868C169.117 397.784 167.816 391.262 167.813 384.675C167.942 371.297 173.21 358.482 182.525 348.884C189.543 341.919 198.481 337.211 208.192 335.363C217.903 333.515 227.945 334.613 237.028 338.514C243.046 341.002 248.589 344.51 253.413 348.884C262.596 358.568 267.842 371.329 268.125 384.675C267.901 397.934 262.641 410.611 253.413 420.132ZM498.175 403.741C495.567 409.774 491.949 415.318 487.475 420.132C478.03 429.472 465.312 434.753 452.032 434.85C445.484 434.712 439.02 433.351 432.972 430.836C426.898 428.308 421.344 424.679 416.588 420.132C412.004 415.405 408.371 409.841 405.888 403.741C403.25 397.731 401.884 391.239 401.875 384.675C401.878 371.272 407.164 358.411 416.588 348.884C421.358 344.438 426.914 340.922 432.972 338.514C442.104 334.887 452.079 333.936 461.731 335.773C471.383 337.609 480.312 342.157 487.475 348.884C494.556 355.897 499.363 364.88 501.271 374.664C503.179 384.448 502.101 394.579 498.175 403.741Z" fill="white"/>
</svg>
